<svg width="1100" height="600" viewBox="0 0 1100 600" version="1.1" xmlns="http://www.w3.org/2000/svg"><g class="sangerchart-grid-group"></g><g class="sangerchart-series-group"><g class="sangerchart-group-0" transform="translate(75,50)"><g class="rect" transform="translate(0,0)"><path d="M12.152777777777779,135.5009495252374L12.152777777777779,424Q12.152777777777779,424,12.152777777777779,424L60.76388888888889,424Q60.76388888888889,424,60.76388888888889,424L60.76388888888889,135.5009495252374Q60.76388888888889,135.5009495252374,60.76388888888889,135.5009495252374L12.152777777777779,135.5009495252374Q12.152777777777779,135.5009495252374,12.152777777777779,135.5009495252374Z" fill="rgb(238,129,114)" opacity="1" stroke-width="" stroke-dasharray="0,0" style="transition: width 0.3s ease 0s;"></path><path d="M85.06944444444446,244.1390304847576L85.06944444444446,424Q85.06944444444446,424,85.06944444444446,424L133.68055555555557,424Q133.68055555555557,424,133.68055555555557,424L133.68055555555557,244.1390304847576Q133.68055555555557,244.1390304847576,133.68055555555557,244.1390304847576L85.06944444444446,244.1390304847576Q85.06944444444446,244.1390304847576,85.06944444444446,244.1390304847576Z" fill="rgb(238,129,114)" opacity="1" stroke-width="" stroke-dasharray="0,0" style="transition: width 0.3s ease 0s;"></path><path d="M157.98611111111111,195.5570214892554L157.98611111111111,424Q157.98611111111111,424,157.98611111111111,424L206.59722222222223,424Q206.59722222222223,424,206.59722222222223,424L206.59722222222223,195.5570214892554Q206.59722222222223,195.5570214892554,206.59722222222223,195.5570214892554L157.98611111111111,195.5570214892554Q157.98611111111111,195.5570214892554,157.98611111111111,195.5570214892554Z" fill="rgb(238,129,114)" opacity="1" stroke-width="" stroke-dasharray="0,0" style="transition: width 0.3s ease 0s;"></path><path d="M230.90277777777777,198.9314342828586L230.90277777777777,424Q230.90277777777777,424,230.90277777777777,424L279.5138888888889,424Q279.5138888888889,424,279.5138888888889,424L279.5138888888889,198.9314342828586Q279.5138888888889,198.9314342828586,279.5138888888889,198.9314342828586L230.90277777777777,198.9314342828586Q230.90277777777777,198.9314342828586,230.90277777777777,198.9314342828586Z" fill="rgb(238,129,114)" opacity="1" stroke-width="" stroke-dasharray="0,0" style="transition: width 0.3s ease 0s;"></path><path d="M303.81944444444446,178.16581709145427L303.81944444444446,424Q303.81944444444446,424,303.81944444444446,424L352.43055555555554,424Q352.43055555555554,424,352.43055555555554,424L352.43055555555554,178.16581709145427Q352.43055555555554,178.16581709145427,352.43055555555554,178.16581709145427L303.81944444444446,178.16581709145427Q303.81944444444446,178.16581709145427,303.81944444444446,178.16581709145427Z" fill="rgb(238,129,114)" opacity="1" stroke-width="" stroke-dasharray="0,0" style="transition: width 0.3s ease 0s;"></path><path d="M376.73611111111114,134.6056971514243L376.73611111111114,424Q376.73611111111114,424,376.73611111111114,424L425.3472222222223,424Q425.3472222222223,424,425.3472222222223,424L425.3472222222223,134.6056971514243Q425.3472222222223,134.6056971514243,425.3472222222223,134.6056971514243L376.73611111111114,134.6056971514243Q376.73611111111114,134.6056971514243,376.73611111111114,134.6056971514243Z" fill="rgb(238,129,114)" opacity="1" stroke-width="" stroke-dasharray="0,0" style="transition: width 0.3s ease 0s;"></path><path d="M449.65277777777777,126.34182908545728L449.65277777777777,424Q449.65277777777777,424,449.65277777777777,424L498.2638888888889,424Q498.2638888888889,424,498.2638888888889,424L498.2638888888889,126.34182908545728Q498.2638888888889,126.34182908545728,498.2638888888889,126.34182908545728L449.65277777777777,126.34182908545728Q449.65277777777777,126.34182908545728,449.65277777777777,126.34182908545728Z" fill="rgb(238,129,114)" opacity="1" stroke-width="" stroke-dasharray="0,0" style="transition: width 0.3s ease 0s;"></path><path d="M522.5694444444445,112.5475262368816L522.5694444444445,424Q522.5694444444445,424,522.5694444444445,424L571.1805555555555,424Q571.1805555555555,424,571.1805555555555,424L571.1805555555555,112.5475262368816Q571.1805555555555,112.5475262368816,571.1805555555555,112.5475262368816L522.5694444444445,112.5475262368816Q522.5694444444445,112.5475262368816,522.5694444444445,112.5475262368816Z" fill="rgb(238,129,114)" opacity="1" stroke-width="" stroke-dasharray="0,0" style="transition: width 0.3s ease 0s;"></path><path d="M595.4861111111112,81.19250374812594L595.4861111111112,424Q595.4861111111112,424,595.4861111111112,424L644.0972222222223,424Q644.0972222222223,424,644.0972222222223,424L644.0972222222223,81.19250374812594Q644.0972222222223,81.19250374812594,644.0972222222223,81.19250374812594L595.4861111111112,81.19250374812594Q595.4861111111112,81.19250374812594,595.4861111111112,81.19250374812594Z" fill="rgb(238,129,114)" opacity="1" stroke-width="" stroke-dasharray="0,0" style="transition: width 0.3s ease 0s;"></path><path d="M668.4027777777778,73.35242378810591L668.4027777777778,424Q668.4027777777778,424,668.4027777777778,424L717.0138888888889,424Q717.0138888888889,424,717.0138888888889,424L717.0138888888889,73.35242378810591Q717.0138888888889,73.35242378810591,717.0138888888889,73.35242378810591L668.4027777777778,73.35242378810591Q668.4027777777778,73.35242378810591,668.4027777777778,73.35242378810591Z" fill="rgb(238,129,114)" opacity="1" stroke-width="" stroke-dasharray="0,0" style="transition: width 0.3s ease 0s;"></path><path d="M741.3194444444446,62.88485757121441L741.3194444444446,424Q741.3194444444446,424,741.3194444444446,424L789.9305555555557,424Q789.9305555555557,424,789.9305555555557,424L789.9305555555557,62.88485757121441Q789.9305555555557,62.88485757121441,789.9305555555557,62.88485757121441L741.3194444444446,62.88485757121441Q741.3194444444446,62.88485757121441,741.3194444444446,62.88485757121441Z" fill="rgb(238,129,114)" opacity="1" stroke-width="" stroke-dasharray="0,0" style="transition: width 0.3s ease 0s;"></path><path d="M814.2361111111112,55.30434782608694L814.2361111111112,424Q814.2361111111112,424,814.2361111111112,424L862.8472222222223,424Q862.8472222222223,424,862.8472222222223,424L862.8472222222223,55.30434782608694Q862.8472222222223,55.30434782608694,862.8472222222223,55.30434782608694L814.2361111111112,55.30434782608694Q814.2361111111112,55.30434782608694,814.2361111111112,55.30434782608694Z" fill="rgb(238,129,114)" opacity="1" stroke-width="" stroke-dasharray="0,0" style="transition: width 0.3s ease 0s;"></path></g><g class="text_0_Series"><text class="text0" x="36.458333333333336" y="135.5009495252374" fill="#333" dy="-0.35em" dx="0" style="font-family: Arial; font-size: 12px; font-weight: normal; font-style: normal; text-anchor: middle; visibility: hidden;">5446.1</text><text class="text1" x="109.37500000000001" y="244.1390304847576" fill="#333" dy="-0.35em" dx="0" style="font-family: Arial; font-size: 12px; font-weight: normal; font-style: normal; text-anchor: middle; visibility: hidden;">3395.3</text><text class="text2" x="182.29166666666669" y="195.5570214892554" fill="#333" dy="-0.35em" dx="0" style="font-family: Arial; font-size: 12px; font-weight: normal; font-style: normal; text-anchor: middle; visibility: hidden;">4312.4</text><text class="text3" x="255.20833333333331" y="198.9314342828586" fill="#333" dy="-0.35em" dx="0" style="font-family: Arial; font-size: 12px; font-weight: normal; font-style: normal; text-anchor: middle; visibility: hidden;">4248.7</text><text class="text4" x="328.125" y="178.16581709145427" fill="#333" dy="-0.35em" dx="0" style="font-family: Arial; font-size: 12px; font-weight: normal; font-style: normal; text-anchor: middle; visibility: hidden;">4640.7</text><text class="text5" x="401.0416666666667" y="134.6056971514243" fill="#333" dy="-0.35em" dx="0" style="font-family: Arial; font-size: 12px; font-weight: normal; font-style: normal; text-anchor: middle; visibility: hidden;">5463</text><text class="text6" x="473.9583333333333" y="126.34182908545728" fill="#333" dy="-0.35em" dx="0" style="font-family: Arial; font-size: 12px; font-weight: normal; font-style: normal; text-anchor: middle; visibility: hidden;">5619</text><text class="text7" x="546.875" y="112.5475262368816" fill="#333" dy="-0.35em" dx="0" style="font-family: Arial; font-size: 12px; font-weight: normal; font-style: normal; text-anchor: middle; visibility: hidden;">5879.4</text><text class="text8" x="619.7916666666667" y="81.19250374812594" fill="#333" dy="-0.35em" dx="0" style="font-family: Arial; font-size: 12px; font-weight: normal; font-style: normal; text-anchor: middle; visibility: hidden;">6471.3</text><text class="text9" x="692.7083333333334" y="73.35242378810591" fill="#333" dy="-0.35em" dx="0" style="font-family: Arial; font-size: 12px; font-weight: normal; font-style: normal; text-anchor: middle; visibility: hidden;">6619.3</text><text class="text10" x="765.6250000000001" y="62.88485757121441" fill="#333" dy="-0.35em" dx="0" style="font-family: Arial; font-size: 12px; font-weight: normal; font-style: normal; text-anchor: middle; visibility: hidden;">6816.9</text><text class="text11" x="838.5416666666667" y="55.30434782608694" fill="#333" dy="-0.35em" dx="0" style="font-family: Arial; font-size: 12px; font-weight: normal; font-style: normal; text-anchor: middle; visibility: hidden;">6960</text></g></g><g class="sangerchart-group-1" transform="translate(75,50)"><path class="line" d="M0,234.26774850729637L12.152777777777779,228.38079044804934C24.305555555555557,222.49383238880228,48.611111111111114,210.7199162703082,72.91666666666667,200.89354898092458C97.22222222222223,191.0671816915409,121.52777777777779,183.1883632312677,145.83333333333334,176.20545206173745C170.13888888888889,169.2225408922072,194.44444444444446,163.1355370134199,218.75,157.57823749316339C243.05555555555557,152.02093797290684,267.36111111111114,146.99334281118104,291.6666666666667,142.32054840057802C315.97222222222223,137.64775398997497,340.2777777777778,133.32976033049474,364.5833333333333,129.26817376794767C388.8888888888889,125.2065872054006,413.1944444444445,121.40140773978673,437.5,117.79130835163748C461.8055555555556,114.18120896348823,486.11111111111114,110.76618965280359,510.41666666666674,107.50522143979344C534.7222222222223,104.24425322678327,559.0277777777778,101.1373361114476,583.3333333333334,98.15555417447108C607.6388888888889,95.17377223749456,631.9444444444445,92.3171254788772,656.25,89.5644039976928C680.5555555555555,86.81168251650841,704.8611111111112,84.16288631275695,729.1666666666666,81.60195706441114C753.4722222222223,79.04102781606531,777.7777777777778,76.56796552312511,789.9305555555555,75.33143437665501L802.0833333333334,74.09490323018491" fill="none" stroke-width="3" stroke="#000" transform="translate(36.458333333333336,0)"></path></g></g><g id=".text_0_Series text" transform="translate(75,50)" class="can_select" data-type="text" data-typeButton="" fill="rgb(128,128,128)" opacity="0.25" visibility="hidden"><rect height="19px" width="41.703125px" x="15.606770833333336" y="116.50094952523739"></rect><rect height="19px" width="42.03125px" x="88.35937500000001" y="225.1390304847576"></rect><rect height="19px" width="42.03125px" x="161.27604166666669" y="176.5570214892554"></rect><rect height="19px" width="42.03125px" x="234.19270833333331" y="179.9314342828586"></rect><rect height="19px" width="42.03125px" x="307.109375" y="159.16581709145427"></rect><rect height="19px" width="32.03125px" x="385.0260416666667" y="115.6056971514243"></rect><rect height="19px" width="32.03125px" x="457.9427083333333" y="107.34182908545728"></rect><rect height="19px" width="42.03125px" x="525.859375" y="93.5475262368816"></rect><rect height="19px" width="42.03125px" x="598.7760416666667" y="62.192503748125944"></rect><rect height="19px" width="42.03125px" x="671.6927083333334" y="54.35242378810591"></rect><rect height="19px" width="42.03125px" x="744.6093750000001" y="43.88485757121441"></rect><rect height="19px" width="32.03125px" x="822.5260416666667" y="36.30434782608694"></rect></g><g class="sangerchart-legend" transform="translate(0,0)"></g><g class="sangerchart-title-g"><title>双击可修改,长按可拖拽！</title><text class="sangerchart-title" fill="#333" style="font-size: 18px; font-weight: normal; font-family: Arial; font-style: normal; text-anchor: middle;" transform="translate(550,20)">Newgenes</text><rect id=".sangerchart-title" height="20px" width="105.0625px" transform="translate(497.46875,4)" class="can_select" data-type="text" data-typeButton="" fill="rgb(128,128,128)" opacity="0.25" visibility="hidden"></rect></g><g class="sangerchart-xaxis-0" transform="translate(75,474)" fill="none" font-size="10" font-family="sans-serif" text-anchor="middle"><path class="domain" stroke="black" d="M0.5,6V0.5H875.5V6" fill="none" stroke-width="1"></path><g class="tick" opacity="1" transform="translate(36.458333333333336,0)"><line stroke="black" y2="6" fill="none" stroke-width="1"></line><text fill="currentColor" y="20.36" transform="rotate(0)" data-typey="0|9|0|0.71em" data-typeTransY="10" style="text-anchor: middle; font-size: 12px; font-weight: normal; font-family: Arial; font-style: normal; fill: rgb(51, 51, 51); visibility: visible;">1<title>双击标签可以旋转！</title></text></g><g class="tick" opacity="1" transform="translate(109.375,0)"><line stroke="black" y2="6" fill="none" stroke-width="1"></line><text fill="currentColor" y="20.36" transform="rotate(0)" data-typey="0|9|0|0.71em" data-typeTransY="10" style="text-anchor: middle; font-size: 12px; font-weight: normal; font-family: Arial; font-style: normal; fill: rgb(51, 51, 51); visibility: visible;">2<title>双击标签可以旋转！</title></text></g><g class="tick" opacity="1" transform="translate(182.29166666666669,0)"><line stroke="black" y2="6" fill="none" stroke-width="1"></line><text fill="currentColor" y="20.36" transform="rotate(0)" data-typey="0|9|0|0.71em" data-typeTransY="10" style="text-anchor: middle; font-size: 12px; font-weight: normal; font-family: Arial; font-style: normal; fill: rgb(51, 51, 51); visibility: visible;">3<title>双击标签可以旋转！</title></text></g><g class="tick" opacity="1" transform="translate(255.20833333333334,0)"><line stroke="black" y2="6" fill="none" stroke-width="1"></line><text fill="currentColor" y="20.36" transform="rotate(0)" data-typey="0|9|0|0.71em" data-typeTransY="10" style="text-anchor: middle; font-size: 12px; font-weight: normal; font-family: Arial; font-style: normal; fill: rgb(51, 51, 51); visibility: visible;">4<title>双击标签可以旋转！</title></text></g><g class="tick" opacity="1" transform="translate(328.125,0)"><line stroke="black" y2="6" fill="none" stroke-width="1"></line><text fill="currentColor" y="20.36" transform="rotate(0)" data-typey="0|9|0|0.71em" data-typeTransY="10" style="text-anchor: middle; font-size: 12px; font-weight: normal; font-family: Arial; font-style: normal; fill: rgb(51, 51, 51); visibility: visible;">5<title>双击标签可以旋转！</title></text></g><g class="tick" opacity="1" transform="translate(401.0416666666667,0)"><line stroke="black" y2="6" fill="none" stroke-width="1"></line><text fill="currentColor" y="20.36" transform="rotate(0)" data-typey="0|9|0|0.71em" data-typeTransY="10" style="text-anchor: middle; font-size: 12px; font-weight: normal; font-family: Arial; font-style: normal; fill: rgb(51, 51, 51); visibility: visible;">6<title>双击标签可以旋转！</title></text></g><g class="tick" opacity="1" transform="translate(473.9583333333333,0)"><line stroke="black" y2="6" fill="none" stroke-width="1"></line><text fill="currentColor" y="20.36" transform="rotate(0)" data-typey="0|9|0|0.71em" data-typeTransY="10" style="text-anchor: middle; font-size: 12px; font-weight: normal; font-family: Arial; font-style: normal; fill: rgb(51, 51, 51); visibility: visible;">7<title>双击标签可以旋转！</title></text></g><g class="tick" opacity="1" transform="translate(546.875,0)"><line stroke="black" y2="6" fill="none" stroke-width="1"></line><text fill="currentColor" y="20.36" transform="rotate(0)" data-typey="0|9|0|0.71em" data-typeTransY="10" style="text-anchor: middle; font-size: 12px; font-weight: normal; font-family: Arial; font-style: normal; fill: rgb(51, 51, 51); visibility: visible;">8<title>双击标签可以旋转！</title></text></g><g class="tick" opacity="1" transform="translate(619.7916666666667,0)"><line stroke="black" y2="6" fill="none" stroke-width="1"></line><text fill="currentColor" y="20.36" transform="rotate(0)" data-typey="0|9|0|0.71em" data-typeTransY="10" style="text-anchor: middle; font-size: 12px; font-weight: normal; font-family: Arial; font-style: normal; fill: rgb(51, 51, 51); visibility: visible;">9<title>双击标签可以旋转！</title></text></g><g class="tick" opacity="1" transform="translate(692.7083333333334,0)"><line stroke="black" y2="6" fill="none" stroke-width="1"></line><text fill="currentColor" y="20.36" transform="rotate(0)" data-typey="0|9|0|0.71em" data-typeTransY="10" style="text-anchor: middle; font-size: 12px; font-weight: normal; font-family: Arial; font-style: normal; fill: rgb(51, 51, 51); visibility: visible;">10<title>双击标签可以旋转！</title></text></g><g class="tick" opacity="1" transform="translate(765.6250000000001,0)"><line stroke="black" y2="6" fill="none" stroke-width="1"></line><text fill="currentColor" y="20.36" transform="rotate(0)" data-typey="0|9|0|0.71em" data-typeTransY="10" style="text-anchor: middle; font-size: 12px; font-weight: normal; font-family: Arial; font-style: normal; fill: rgb(51, 51, 51); visibility: visible;">11<title>双击标签可以旋转！</title></text></g><g class="tick" opacity="1" transform="translate(838.5416666666667,0)"><line stroke="black" y2="6" fill="none" stroke-width="1"></line><text fill="currentColor" y="20.36" transform="rotate(0)" data-typey="0|9|0|0.71em" data-typeTransY="10" style="text-anchor: middle; font-size: 12px; font-weight: normal; font-family: Arial; font-style: normal; fill: rgb(51, 51, 51); visibility: visible;">12<title>双击标签可以旋转！</title></text></g><title>双击标签可以旋转！</title></g><g class="sangerchart-xaxis-0-select"><rect id=".sangerchart-xaxis-0 text" height="20.53125px" width="895px" transform="translate(75,474)" class="can_select" data-type="text" data-typeButton="" fill="rgb(128,128,128)" opacity="0.25" visibility="hidden"></rect></g><g class="sangerchart-yaxis-0" transform="translate(75,50)" fill="none" font-size="10" font-family="sans-serif" text-anchor="end"><path class="domain" stroke="black" d="M-6,424.5H0.5V0.5H-6" fill="none" stroke-width="1"></path><g class="tick" opacity="1" transform="translate(0,424.5)"><line stroke="black" x2="-6" fill="none" stroke-width="1"></line><text fill="currentColor" x="-9" dy="0.32em" transform="rotate(0)" style="text-anchor: end; font-size: 12px; font-weight: normal; font-family: Arial; font-style: normal; fill: rgb(51, 51, 51); visibility: visible;">0</text></g><g class="tick" opacity="1" transform="translate(0,371.5264867566217)"><line stroke="black" x2="-6" fill="none" stroke-width="1"></line><text fill="currentColor" x="-9" dy="0.32em" transform="rotate(0)" style="text-anchor: end; font-size: 12px; font-weight: normal; font-family: Arial; font-style: normal; fill: rgb(51, 51, 51); visibility: visible;">1000</text></g><g class="tick" opacity="1" transform="translate(0,318.5529735132434)"><line stroke="black" x2="-6" fill="none" stroke-width="1"></line><text fill="currentColor" x="-9" dy="0.32em" transform="rotate(0)" style="text-anchor: end; font-size: 12px; font-weight: normal; font-family: Arial; font-style: normal; fill: rgb(51, 51, 51); visibility: visible;">2000</text></g><g class="tick" opacity="1" transform="translate(0,265.5794602698651)"><line stroke="black" x2="-6" fill="none" stroke-width="1"></line><text fill="currentColor" x="-9" dy="0.32em" transform="rotate(0)" style="text-anchor: end; font-size: 12px; font-weight: normal; font-family: Arial; font-style: normal; fill: rgb(51, 51, 51); visibility: visible;">3000</text></g><g class="tick" opacity="1" transform="translate(0,212.60594702648675)"><line stroke="black" x2="-6" fill="none" stroke-width="1"></line><text fill="currentColor" x="-9" dy="0.32em" transform="rotate(0)" style="text-anchor: end; font-size: 12px; font-weight: normal; font-family: Arial; font-style: normal; fill: rgb(51, 51, 51); visibility: visible;">4000</text></g><g class="tick" opacity="1" transform="translate(0,159.63243378310847)"><line stroke="black" x2="-6" fill="none" stroke-width="1"></line><text fill="currentColor" x="-9" dy="0.32em" transform="rotate(0)" style="text-anchor: end; font-size: 12px; font-weight: normal; font-family: Arial; font-style: normal; fill: rgb(51, 51, 51); visibility: visible;">5000</text></g><g class="tick" opacity="1" transform="translate(0,106.65892053973016)"><line stroke="black" x2="-6" fill="none" stroke-width="1"></line><text fill="currentColor" x="-9" dy="0.32em" transform="rotate(0)" style="text-anchor: end; font-size: 12px; font-weight: normal; font-family: Arial; font-style: normal; fill: rgb(51, 51, 51); visibility: visible;">6000</text></g><g class="tick" opacity="1" transform="translate(0,53.6854072963518)"><line stroke="black" x2="-6" fill="none" stroke-width="1"></line><text fill="currentColor" x="-9" dy="0.32em" transform="rotate(0)" style="text-anchor: end; font-size: 12px; font-weight: normal; font-family: Arial; font-style: normal; fill: rgb(51, 51, 51); visibility: visible;">7000</text></g><g class="tick" opacity="1" transform="translate(0,0.7118940529734914)"><line stroke="black" x2="-6" fill="none" stroke-width="1"></line><text fill="currentColor" x="-9" dy="0.32em" transform="rotate(0)" style="text-anchor: end; font-size: 12px; font-weight: normal; font-family: Arial; font-style: normal; fill: rgb(51, 51, 51); visibility: visible;">8000</text></g></g><rect id=".sangerchart-yaxis-0 text" height="437.8037414550781px" width="36.203125px" transform="translate(39.296875,43.540019035339355)" class="can_select" data-type="text" data-typeButton="" fill="rgb(128,128,128)" opacity="0.25" visibility="hidden"></rect><g class="sangerchart-xAxis-title-g"><title>双击可修改,长按可拖拽！</title><text class="sangerchart-xAxis-title-0" fill="#333" text-anchor="middle" x="512.5" y="514.53125" style="font-size: 14px; font-weight: normal; font-family: Arial; font-style: normal;">Genome Number</text><rect id=".sangerchart-xAxis-title-0" height="16px" width="128.734375px" transform="translate(448.796875,501.53125)" class="can_select" data-type="text" data-typeButton="" fill="rgb(128,128,128)" opacity="0.25" visibility="hidden"></rect></g><g class="sangerchart-yAxis-title-g"><title>双击可修改,长按可拖拽！</title><text class="sangerchart-yAxis-title-0" fill="#333" transform="rotate(-90,28.796875,262)" text-anchor="middle" x="28.796875" y="262" style="font-size: 14px; font-weight: normal; font-family: Arial; font-style: normal;">New Gene Cluster Number</text><rect id=".sangerchart-yAxis-title-0" height="189.40625px" width="16px" transform="translate(15.796875,166.625)" class="can_select" data-type="text" data-typeButton="" fill="rgb(128,128,128)" opacity="0.25" visibility="hidden"></rect></g><g class="sangerchart-frame" visibility="hidden"><g class="frame0" transform="translate(75,50)"><path d="M0,0V0.5H875V0" stroke="currentColor" fill="none"></path><path d="M-0,424H0.5V0.5H-0" stroke="currentColor" transform="translate(875,0)" fill="none"></path><path d="M0,0V0.5H875V0" stroke="currentColor" transform="translate(0,424)" fill="none"></path><path d="M-0,424H0.5V0.5H-0" stroke="currentColor" fill="none"></path></g></g></svg>