<svg width="1000" height="700" viewBox="0 0 1000 700" version="1.1" xmlns="http://www.w3.org/2000/svg"><g class="sangerchart-grid-group"></g><g class="sangerchart-series-group"><g class="sangerchart-group-0" transform="translate(42,95)"><g class="venn_0_0 venn_GCA_000237065.1_CP venn" transform="translate(387,236)rotate(30)"><path d="M3.6127080574846916e-15 -59A236 59 3.141592653589793 1 1 3.6127080574846916e-15 59M3.6127080574846916e-15 59A59 59 3.141592653589793 1 0 3.6127080574846916e-15 -59" fill="rgb(0, 0, 255)" opacity=" 0.3" stroke="none" stroke-width="1" stroke-dasharray="0,0"></path></g><g class="venn_0_1 venn_GCA_000293885.3_CP venn" transform="translate(387,236)rotate(60)"><path d="M3.6127080574846916e-15 -59A236 59 3.141592653589793 1 1 3.6127080574846916e-15 59M3.6127080574846916e-15 59A59 59 3.141592653589793 1 0 3.6127080574846916e-15 -59" fill="rgb(0, 100, 0)" opacity=" 0.3" stroke="none" stroke-width="1" stroke-dasharray="0,0"></path></g><g class="venn_0_2 venn_GCA_001307275.1_CP venn" transform="translate(387,236)rotate(90)"><path d="M3.6127080574846916e-15 -59A236 59 3.141592653589793 1 1 3.6127080574846916e-15 59M3.6127080574846916e-15 59A59 59 3.141592653589793 1 0 3.6127080574846916e-15 -59" fill="rgb(255, 0, 0)" opacity=" 0.3" stroke="none" stroke-width="1" stroke-dasharray="0,0"></path></g><g class="venn_0_3 venn_GCA_001440325.1_SP venn" transform="translate(387,236)rotate(120)"><path d="M3.6127080574846916e-15 -59A236 59 3.141592653589793 1 1 3.6127080574846916e-15 59M3.6127080574846916e-15 59A59 59 3.141592653589793 1 0 3.6127080574846916e-15 -59" fill="rgb(138, 43, 226)" opacity=" 0.3" stroke="none" stroke-width="1" stroke-dasharray="0,0"></path></g><g class="venn_0_4 venn_GCA_002943685.1_SP venn" transform="translate(387,236)rotate(150)"><path d="M3.6127080574846916e-15 -59A236 59 3.141592653589793 1 1 3.6127080574846916e-15 59M3.6127080574846916e-15 59A59 59 3.141592653589793 1 0 3.6127080574846916e-15 -59" fill="rgb(0, 245, 255)" opacity=" 0.3" stroke="none" stroke-width="1" stroke-dasharray="0,0"></path></g><g class="venn_0_5 venn_GCA_003612935.1_CP venn" transform="translate(387,236)rotate(180)"><path d="M3.6127080574846916e-15 -59A236 59 3.141592653589793 1 1 3.6127080574846916e-15 59M3.6127080574846916e-15 59A59 59 3.141592653589793 1 0 3.6127080574846916e-15 -59" fill="rgb(69, 139, 0)" opacity=" 0.3" stroke="none" stroke-width="1" stroke-dasharray="0,0"></path></g><g class="venn_0_6 venn_GCA_003732425.1_SP venn" transform="translate(387,236)rotate(210)"><path d="M3.6127080574846916e-15 -59A236 59 3.141592653589793 1 1 3.6127080574846916e-15 59M3.6127080574846916e-15 59A59 59 3.141592653589793 1 0 3.6127080574846916e-15 -59" fill="rgb(255, 255, 0)" opacity=" 0.3" stroke="none" stroke-width="1" stroke-dasharray="0,0"></path></g><g class="venn_0_7 venn_GCA_900475215.1_CP venn" transform="translate(387,236)rotate(240)"><path d="M3.6127080574846916e-15 -59A236 59 3.141592653589793 1 1 3.6127080574846916e-15 59M3.6127080574846916e-15 59A59 59 3.141592653589793 1 0 3.6127080574846916e-15 -59" fill="rgb(255, 69, 0)" opacity=" 0.3" stroke="none" stroke-width="1" stroke-dasharray="0,0"></path></g><g class="venn_0_8 venn_GCA_900636635.1_CP venn" transform="translate(387,236)rotate(270)"><path d="M3.6127080574846916e-15 -59A236 59 3.141592653589793 1 1 3.6127080574846916e-15 59M3.6127080574846916e-15 59A59 59 3.141592653589793 1 0 3.6127080574846916e-15 -59" fill="rgb(0, 255, 127)" opacity=" 0.3" stroke="none" stroke-width="1" stroke-dasharray="0,0"></path></g><g class="venn_0_9 venn_GCA_902498115.1_SP venn" transform="translate(387,236)rotate(300)"><path d="M3.6127080574846916e-15 -59A236 59 3.141592653589793 1 1 3.6127080574846916e-15 59M3.6127080574846916e-15 59A59 59 3.141592653589793 1 0 3.6127080574846916e-15 -59" fill="rgb(255, 20, 147)" opacity=" 0.3" stroke="none" stroke-width="1" stroke-dasharray="0,0"></path></g><g class="venn_0_10 venn_GCA_902498125.1_SP venn" transform="translate(387,236)rotate(330)"><path d="M3.6127080574846916e-15 -59A236 59 3.141592653589793 1 1 3.6127080574846916e-15 59M3.6127080574846916e-15 59A59 59 3.141592653589793 1 0 3.6127080574846916e-15 -59" fill="rgb(139, 71, 137)" opacity=" 0.3" stroke="none" stroke-width="1" stroke-dasharray="0,0"></path></g><g class="venn_0_11 venn_GCA_902498195.1_SP venn" transform="translate(387,236)rotate(360)"><path d="M3.6127080574846916e-15 -59A236 59 3.141592653589793 1 1 3.6127080574846916e-15 59M3.6127080574846916e-15 59A59 59 3.141592653589793 1 0 3.6127080574846916e-15 -59" fill="rgb(255, 106, 106)" opacity=" 0.3" stroke="none" stroke-width="1" stroke-dasharray="0,0"></path></g><g class="venn_0_0 stroke" transform="translate(387,236)rotate(30)"><path d="M3.6127080574846916e-15 -59A236 59 3.141592653589793 1 1 3.6127080574846916e-15 59M3.6127080574846916e-15 59A59 59 3.141592653589793 1 0 3.6127080574846916e-15 -59" fill="none" stroke="none" stroke-width="1" stroke-dasharray="5, 0" stroke-linecap="butt"></path></g><g class="venn_0_1 stroke" transform="translate(387,236)rotate(60)"><path d="M3.6127080574846916e-15 -59A236 59 3.141592653589793 1 1 3.6127080574846916e-15 59M3.6127080574846916e-15 59A59 59 3.141592653589793 1 0 3.6127080574846916e-15 -59" fill="none" stroke="none" stroke-width="1" stroke-dasharray="5, 0" stroke-linecap="butt"></path></g><g class="venn_0_2 stroke" transform="translate(387,236)rotate(90)"><path d="M3.6127080574846916e-15 -59A236 59 3.141592653589793 1 1 3.6127080574846916e-15 59M3.6127080574846916e-15 59A59 59 3.141592653589793 1 0 3.6127080574846916e-15 -59" fill="none" stroke="none" stroke-width="1" stroke-dasharray="5, 0" stroke-linecap="butt"></path></g><g class="venn_0_3 stroke" transform="translate(387,236)rotate(120)"><path d="M3.6127080574846916e-15 -59A236 59 3.141592653589793 1 1 3.6127080574846916e-15 59M3.6127080574846916e-15 59A59 59 3.141592653589793 1 0 3.6127080574846916e-15 -59" fill="none" stroke="none" stroke-width="1" stroke-dasharray="5, 0" stroke-linecap="butt"></path></g><g class="venn_0_4 stroke" transform="translate(387,236)rotate(150)"><path d="M3.6127080574846916e-15 -59A236 59 3.141592653589793 1 1 3.6127080574846916e-15 59M3.6127080574846916e-15 59A59 59 3.141592653589793 1 0 3.6127080574846916e-15 -59" fill="none" stroke="none" stroke-width="1" stroke-dasharray="5, 0" stroke-linecap="butt"></path></g><g class="venn_0_5 stroke" transform="translate(387,236)rotate(180)"><path d="M3.6127080574846916e-15 -59A236 59 3.141592653589793 1 1 3.6127080574846916e-15 59M3.6127080574846916e-15 59A59 59 3.141592653589793 1 0 3.6127080574846916e-15 -59" fill="none" stroke="none" stroke-width="1" stroke-dasharray="5, 0" stroke-linecap="butt"></path></g><g class="venn_0_6 stroke" transform="translate(387,236)rotate(210)"><path d="M3.6127080574846916e-15 -59A236 59 3.141592653589793 1 1 3.6127080574846916e-15 59M3.6127080574846916e-15 59A59 59 3.141592653589793 1 0 3.6127080574846916e-15 -59" fill="none" stroke="none" stroke-width="1" stroke-dasharray="5, 0" stroke-linecap="butt"></path></g><g class="venn_0_7 stroke" transform="translate(387,236)rotate(240)"><path d="M3.6127080574846916e-15 -59A236 59 3.141592653589793 1 1 3.6127080574846916e-15 59M3.6127080574846916e-15 59A59 59 3.141592653589793 1 0 3.6127080574846916e-15 -59" fill="none" stroke="none" stroke-width="1" stroke-dasharray="5, 0" stroke-linecap="butt"></path></g><g class="venn_0_8 stroke" transform="translate(387,236)rotate(270)"><path d="M3.6127080574846916e-15 -59A236 59 3.141592653589793 1 1 3.6127080574846916e-15 59M3.6127080574846916e-15 59A59 59 3.141592653589793 1 0 3.6127080574846916e-15 -59" fill="none" stroke="none" stroke-width="1" stroke-dasharray="5, 0" stroke-linecap="butt"></path></g><g class="venn_0_9 stroke" transform="translate(387,236)rotate(300)"><path d="M3.6127080574846916e-15 -59A236 59 3.141592653589793 1 1 3.6127080574846916e-15 59M3.6127080574846916e-15 59A59 59 3.141592653589793 1 0 3.6127080574846916e-15 -59" fill="none" stroke="none" stroke-width="1" stroke-dasharray="5, 0" stroke-linecap="butt"></path></g><g class="venn_0_10 stroke" transform="translate(387,236)rotate(330)"><path d="M3.6127080574846916e-15 -59A236 59 3.141592653589793 1 1 3.6127080574846916e-15 59M3.6127080574846916e-15 59A59 59 3.141592653589793 1 0 3.6127080574846916e-15 -59" fill="none" stroke="none" stroke-width="1" stroke-dasharray="5, 0" stroke-linecap="butt"></path></g><g class="venn_0_11 stroke" transform="translate(387,236)rotate(360)"><path d="M3.6127080574846916e-15 -59A236 59 3.141592653589793 1 1 3.6127080574846916e-15 59M3.6127080574846916e-15 59A59 59 3.141592653589793 1 0 3.6127080574846916e-15 -59" fill="none" stroke="none" stroke-width="1" stroke-dasharray="5, 0" stroke-linecap="butt"></path></g><g class="venn_0_all venn_all venn" transform="translate(387,236)"><path d="M3.6127080574846916e-15,-59A59,59,0,1,1,-3.6127080574846916e-15,59A59,59,0,1,1,3.6127080574846916e-15,-59Z" fill="rgb(255, 255, 255)" stroke="none"></path></g><g class="node_floatelement_vennname"><g class="vennname_0_GCA_000237065.1_CP" transform="translate(613.0326303877384,366.5)"><text x="0" y="0" fill="#333" style="visibility: visible; font-family: Arial; font-size: 12px; font-weight: normal; font-style: normal;">GCA_000237065.1_CP</text><rect id=".node_floatelement_vennname text" class="can_select" height="19px" width="131.09381103515625px" transform="translate(-2.5,-14)" data-type="text" data-typeButton="" fill="rgb(128,128,128)" opacity="0.25" visibility="hidden"></rect></g><g class="vennname_0_GCA_000293885.3_CP" transform="translate(517.5,462.03263038773844)"><text x="0" y="0" fill="#333" style="visibility: visible; font-family: Arial; font-size: 12px; font-weight: normal; font-style: normal;">GCA_000293885.3_CP</text><rect id=".node_floatelement_vennname text" class="can_select" height="19px" width="131.09375px" transform="translate(-2.5,-14)" data-type="text" data-typeButton="" fill="rgb(128,128,128)" opacity="0.25" visibility="hidden"></rect></g><g class="vennname_0_GCA_001307275.1_CP" transform="translate(387,497)"><text x="0" y="0" fill="#333" style="visibility: visible; font-family: Arial; font-size: 12px; font-weight: normal; font-style: normal;">GCA_001307275.1_CP</text><rect id=".node_floatelement_vennname text" class="can_select" height="19px" width="131.09375px" transform="translate(-2.5,-14)" data-type="text" data-typeButton="" fill="rgb(128,128,128)" opacity="0.25" visibility="hidden"></rect></g><g class="vennname_0_GCA_001440325.1_SP" transform="translate(184.50000000000009,462.0326303877385)"><text x="0" y="0" fill="#333" style="visibility: visible; font-family: Arial; font-size: 12px; font-weight: normal; font-style: normal;">GCA_001440325.1_SP</text><rect id=".node_floatelement_vennname text" class="can_select" height="19px" width="130.4375px" transform="translate(-2.5,-14)" data-type="text" data-typeButton="" fill="rgb(128,128,128)" opacity="0.25" visibility="hidden"></rect></g><g class="vennname_0_GCA_002943685.1_SP" transform="translate(36.25971146730234,366.5)"><text x="0" y="0" fill="#333" style="visibility: visible; font-family: Arial; font-size: 12px; font-weight: normal; font-style: normal;">GCA_002943685.1_SP</text><rect id=".node_floatelement_vennname text" class="can_select" height="19px" width="130.4375px" transform="translate(-2.5,-14)" data-type="text" data-typeButton="" fill="rgb(128,128,128)" opacity="0.25" visibility="hidden"></rect></g><g class="vennname_0_GCA_003612935.1_CP" transform="translate(-18,236.00000000000003)"><text x="0" y="0" fill="#333" style="visibility: visible; font-family: Arial; font-size: 12px; font-weight: normal; font-style: normal;">GCA_003612935.1_CP</text><rect id=".node_floatelement_vennname text" class="can_select" height="19px" width="131.09375px" transform="translate(-2.5,-14)" data-type="text" data-typeButton="" fill="rgb(128,128,128)" opacity="0.25" visibility="hidden"></rect></g><g class="vennname_0_GCA_003732425.1_SP" transform="translate(36.259711467302395,105.49999999999997)"><text x="0" y="0" fill="#333" style="visibility: visible; font-family: Arial; font-size: 12px; font-weight: normal; font-style: normal;">GCA_003732425.1_SP</text><rect id=".node_floatelement_vennname text" class="can_select" height="19px" width="130.4375px" transform="translate(-2.5,-14)" data-type="text" data-typeButton="" fill="rgb(128,128,128)" opacity="0.25" visibility="hidden"></rect></g><g class="vennname_0_GCA_900475215.1_CP" transform="translate(184.49999999999983,9.967369612261564)"><text x="0" y="0" fill="#333" style="visibility: visible; font-family: Arial; font-size: 12px; font-weight: normal; font-style: normal;">GCA_900475215.1_CP</text><rect id=".node_floatelement_vennname text" class="can_select" height="19px" width="131.09375px" transform="translate(-2.5,-14)" data-type="text" data-typeButton="" fill="rgb(128,128,128)" opacity="0.25" visibility="hidden"></rect></g><g class="vennname_0_GCA_900636635.1_CP" transform="translate(381.99999999999994,-15)"><text x="0" y="0" fill="#333" style="visibility: visible; font-family: Arial; font-size: 12px; font-weight: normal; font-style: normal;">GCA_900636635.1_CP</text><rect id=".node_floatelement_vennname text" class="can_select" height="19px" width="131.09375px" transform="translate(-2.5,-14)" data-type="text" data-typeButton="" fill="rgb(128,128,128)" opacity="0.25" visibility="hidden"></rect></g><g class="vennname_0_GCA_902498115.1_SP" transform="translate(517.5,9.967369612261535)"><text x="0" y="0" fill="#333" style="visibility: visible; font-family: Arial; font-size: 12px; font-weight: normal; font-style: normal;">GCA_902498115.1_SP</text><rect id=".node_floatelement_vennname text" class="can_select" height="19px" width="129.546875px" transform="translate(-2.5,-14)" data-type="text" data-typeButton="" fill="rgb(128,128,128)" opacity="0.25" visibility="hidden"></rect></g><g class="vennname_0_GCA_902498125.1_SP" transform="translate(613.0326303877384,105.49999999999989)"><text x="0" y="0" fill="#333" style="visibility: visible; font-family: Arial; font-size: 12px; font-weight: normal; font-style: normal;">GCA_902498125.1_SP</text><rect id=".node_floatelement_vennname text" class="can_select" height="19px" width="130.43756103515625px" transform="translate(-2.5,-14)" data-type="text" data-typeButton="" fill="rgb(128,128,128)" opacity="0.25" visibility="hidden"></rect></g><g class="vennname_0_GCA_902498195.1_SP" transform="translate(648,235.99999999999994)"><text x="0" y="0" fill="#333" style="visibility: visible; font-family: Arial; font-size: 12px; font-weight: normal; font-style: normal;">GCA_902498195.1_SP</text><rect id=".node_floatelement_vennname text" class="can_select" height="19px" width="130.4375px" transform="translate(-2.5,-14)" data-type="text" data-typeButton="" fill="rgb(128,128,128)" opacity="0.25" visibility="hidden"></rect></g></g><g class="node_floatelement_venn"><g class="text_0_0" transform="translate(565.4012331795943,339)"><text class="number-black" x="0" y="0" text-anchor="middle" fill="#333" style="visibility: visible; font-family: Arial; font-size: 12px; font-weight: normal; font-style: normal;">417</text><g class="text_percent_venn"><text x="0" y="16" fill="#333" text-anchor="middle" style="visibility: hidden; font-family: Arial; font-size: 12px; font-weight: normal; font-style: normal;"></text></g><rect id=".node_floatelement_venn text" class="can_select" height="30px" width="60px" transform="translate(-30,-15)" data-type="text" data-typeButton="" fill="rgb(128,128,128)" opacity="0.25" visibility="hidden"></rect></g><g class="text_0_1" transform="translate(490,414.4012331795943)"><text class="number-black" x="0" y="0" text-anchor="middle" fill="#333" style="visibility: visible; font-family: Arial; font-size: 12px; font-weight: normal; font-style: normal;">593</text><g class="text_percent_venn"><text x="0" y="16" fill="#333" text-anchor="middle" style="visibility: hidden; font-family: Arial; font-size: 12px; font-weight: normal; font-style: normal;"></text></g><rect id=".node_floatelement_venn text" class="can_select" height="30px" width="60px" transform="translate(-30,-15)" data-type="text" data-typeButton="" fill="rgb(128,128,128)" opacity="0.25" visibility="hidden"></rect></g><g class="text_0_2" transform="translate(387,442)"><text class="number-black" x="0" y="0" text-anchor="middle" fill="#333" style="visibility: visible; font-family: Arial; font-size: 12px; font-weight: normal; font-style: normal;">511</text><g class="text_percent_venn"><text x="0" y="16" fill="#333" text-anchor="middle" style="visibility: hidden; font-family: Arial; font-size: 12px; font-weight: normal; font-style: normal;"></text></g><rect id=".node_floatelement_venn text" class="can_select" height="30px" width="60px" transform="translate(-30,-15)" data-type="text" data-typeButton="" fill="rgb(128,128,128)" opacity="0.25" visibility="hidden"></rect></g><g class="text_0_3" transform="translate(284.00000000000006,414.4012331795944)"><text class="number-black" x="0" y="0" text-anchor="middle" fill="#333" style="visibility: visible; font-family: Arial; font-size: 12px; font-weight: normal; font-style: normal;">392</text><g class="text_percent_venn"><text x="0" y="16" fill="#333" text-anchor="middle" style="visibility: hidden; font-family: Arial; font-size: 12px; font-weight: normal; font-style: normal;"></text></g><rect id=".node_floatelement_venn text" class="can_select" height="30px" width="60px" transform="translate(-30,-15)" data-type="text" data-typeButton="" fill="rgb(128,128,128)" opacity="0.25" visibility="hidden"></rect></g><g class="text_0_4" transform="translate(208.59876682040561,339)"><text class="number-black" x="0" y="0" text-anchor="middle" fill="#333" style="visibility: visible; font-family: Arial; font-size: 12px; font-weight: normal; font-style: normal;">108</text><g class="text_percent_venn"><text x="0" y="16" fill="#333" text-anchor="middle" style="visibility: hidden; font-family: Arial; font-size: 12px; font-weight: normal; font-style: normal;"></text></g><rect id=".node_floatelement_venn text" class="can_select" height="30px" width="60px" transform="translate(-30,-15)" data-type="text" data-typeButton="" fill="rgb(128,128,128)" opacity="0.25" visibility="hidden"></rect></g><g class="text_0_5" transform="translate(181,236.00000000000003)"><text class="number-black" x="0" y="0" text-anchor="middle" fill="#333" style="visibility: visible; font-family: Arial; font-size: 12px; font-weight: normal; font-style: normal;">655</text><g class="text_percent_venn"><text x="0" y="16" fill="#333" text-anchor="middle" style="visibility: hidden; font-family: Arial; font-size: 12px; font-weight: normal; font-style: normal;"></text></g><rect id=".node_floatelement_venn text" class="can_select" height="30px" width="60px" transform="translate(-30,-15)" data-type="text" data-typeButton="" fill="rgb(128,128,128)" opacity="0.25" visibility="hidden"></rect></g><g class="text_0_6" transform="translate(208.59876682040564,132.99999999999997)"><text class="number-black" x="0" y="0" text-anchor="middle" fill="#333" style="visibility: visible; font-family: Arial; font-size: 12px; font-weight: normal; font-style: normal;">344</text><g class="text_percent_venn"><text x="0" y="16" fill="#333" text-anchor="middle" style="visibility: hidden; font-family: Arial; font-size: 12px; font-weight: normal; font-style: normal;"></text></g><rect id=".node_floatelement_venn text" class="can_select" height="30px" width="60px" transform="translate(-30,-15)" data-type="text" data-typeButton="" fill="rgb(128,128,128)" opacity="0.25" visibility="hidden"></rect></g><g class="text_0_7" transform="translate(283.9999999999999,57.59876682040567)"><text class="number-black" x="0" y="0" text-anchor="middle" fill="#333" style="visibility: visible; font-family: Arial; font-size: 12px; font-weight: normal; font-style: normal;">85</text><g class="text_percent_venn"><text x="0" y="16" fill="#333" text-anchor="middle" style="visibility: hidden; font-family: Arial; font-size: 12px; font-weight: normal; font-style: normal;"></text></g><rect id=".node_floatelement_venn text" class="can_select" height="30px" width="60px" transform="translate(-30,-15)" data-type="text" data-typeButton="" fill="rgb(128,128,128)" opacity="0.25" visibility="hidden"></rect></g><g class="text_0_8" transform="translate(386.99999999999994,30)"><text class="number-black" x="0" y="0" text-anchor="middle" fill="#333" style="visibility: visible; font-family: Arial; font-size: 12px; font-weight: normal; font-style: normal;">2013</text><g class="text_percent_venn"><text x="0" y="16" fill="#333" text-anchor="middle" style="visibility: hidden; font-family: Arial; font-size: 12px; font-weight: normal; font-style: normal;"></text></g><rect id=".node_floatelement_venn text" class="can_select" height="30px" width="60px" transform="translate(-30,-15)" data-type="text" data-typeButton="" fill="rgb(128,128,128)" opacity="0.25" visibility="hidden"></rect></g><g class="text_0_9" transform="translate(490,57.59876682040564)"><text class="number-black" x="0" y="0" text-anchor="middle" fill="#333" style="visibility: visible; font-family: Arial; font-size: 12px; font-weight: normal; font-style: normal;">281</text><g class="text_percent_venn"><text x="0" y="16" fill="#333" text-anchor="middle" style="visibility: hidden; font-family: Arial; font-size: 12px; font-weight: normal; font-style: normal;"></text></g><rect id=".node_floatelement_venn text" class="can_select" height="30px" width="60px" transform="translate(-30,-15)" data-type="text" data-typeButton="" fill="rgb(128,128,128)" opacity="0.25" visibility="hidden"></rect></g><g class="text_0_10" transform="translate(565.4012331795943,132.99999999999991)"><text class="number-black" x="0" y="0" text-anchor="middle" fill="#333" style="visibility: visible; font-family: Arial; font-size: 12px; font-weight: normal; font-style: normal;">411</text><g class="text_percent_venn"><text x="0" y="16" fill="#333" text-anchor="middle" style="visibility: hidden; font-family: Arial; font-size: 12px; font-weight: normal; font-style: normal;"></text></g><rect id=".node_floatelement_venn text" class="can_select" height="30px" width="60px" transform="translate(-30,-15)" data-type="text" data-typeButton="" fill="rgb(128,128,128)" opacity="0.25" visibility="hidden"></rect></g><g class="text_0_11" transform="translate(593,235.99999999999994)"><text class="number-black" x="0" y="0" text-anchor="middle" fill="#333" style="visibility: visible; font-family: Arial; font-size: 12px; font-weight: normal; font-style: normal;">553</text><g class="text_percent_venn"><text x="0" y="16" fill="#333" text-anchor="middle" style="visibility: hidden; font-family: Arial; font-size: 12px; font-weight: normal; font-style: normal;"></text></g><rect id=".node_floatelement_venn text" class="can_select" height="30px" width="60px" transform="translate(-30,-15)" data-type="text" data-typeButton="" fill="rgb(128,128,128)" opacity="0.25" visibility="hidden"></rect></g><g class="text_0_12" transform="translate(387,236)"><text class="number-black" x="0" y="0" text-anchor="middle" fill="#333" style="visibility: visible; font-family: Arial; font-size: 12px; font-weight: normal; font-style: normal;">2462</text><g class="text_percent_venn"><text x="0" y="16" fill="#333" text-anchor="middle" style="visibility: hidden; font-family: Arial; font-size: 12px; font-weight: normal; font-style: normal;"></text></g><rect id=".node_floatelement_venn text" class="can_select" height="30px" width="60px" transform="translate(-30,-15)" data-type="text" data-typeButton="" fill="rgb(128,128,128)" opacity="0.25" visibility="hidden"></rect></g></g></g></g><g class="sangerchart-legend" transform="translate(0,0)"><g class="sangerchart-legend-item-0" id="sangerchart-legend" transform="translate(846,55)"><title>长按拖动图例!</title><text class="sangerchart-legend-title" text-anchor="start" transform="translate(-5,0)" style="font-size: 12px; font-weight: normal; fill: rgb(51, 51, 51); font-style: normal; font-family: Arial;"></text><g class="sangerchart-legend-box" transform="translate(0,15)" data-type="sangerchart-group-0"><g class="sangerchart-group-0" transform="translate(0,0)"><path d="M6.4820448144285745,0A6.4820448144285745,6.4820448144285745,0,1,1,-6.4820448144285745,0A6.4820448144285745,6.4820448144285745,0,1,1,6.4820448144285745,0" transform="translate(0,0)" fill="rgb(0,0,255)" opacity="0.3" stroke="none" stroke-width="1" stroke-dasharray="5, 0"></path><text class="legend-text-0" text-anchor="start" fill="#333" style="font-family: &quot;Lucida Granda&quot;; font-style: normal; font-weight: normal; font-size: 11px;" transform="translate(9.4820556640625,4.050000000000001)">GCA_000237065.1_CP</text><rect id=".sangerchart-legend .sangerchart-legend-item-0 .sangerchart-legend-box .sangerchart-group-0" height="18.155990982055663" width="18.149726486206053" transform="translate(-9.074863243103026,-9.077995491027831)" class="can_select" data-type="shape" data-typeButton="" fill="rgb(128,128,128)" opacity="0.25" visibility="hidden"></rect></g><g class="sangerchart-group-1" transform="translate(0,21)"><path d="M6.4820448144285745,0A6.4820448144285745,6.4820448144285745,0,1,1,-6.4820448144285745,0A6.4820448144285745,6.4820448144285745,0,1,1,6.4820448144285745,0" transform="translate(0,0)" fill="rgb(0,100,0)" opacity="0.3" stroke="none" stroke-width="1" stroke-dasharray="5, 0"></path><text class="legend-text-1" text-anchor="start" fill="#333" style="font-family: &quot;Lucida Granda&quot;; font-style: normal; font-weight: normal; font-size: 11px;" transform="translate(9.4820556640625,4.050000000000001)">GCA_000293885.3_CP</text><rect id=".sangerchart-legend .sangerchart-legend-item-0 .sangerchart-legend-box .sangerchart-group-1" height="18.155990982055663" width="18.149726486206053" transform="translate(-9.074863243103026,-9.077995491027831)" class="can_select" data-type="shape" data-typeButton="" fill="rgb(128,128,128)" opacity="0.25" visibility="hidden"></rect></g><g class="sangerchart-group-2" transform="translate(0,42)"><path d="M6.4820448144285745,0A6.4820448144285745,6.4820448144285745,0,1,1,-6.4820448144285745,0A6.4820448144285745,6.4820448144285745,0,1,1,6.4820448144285745,0" transform="translate(0,0)" fill="rgb(255,0,0)" opacity="0.3" stroke="none" stroke-width="1" stroke-dasharray="5, 0"></path><text class="legend-text-2" text-anchor="start" fill="#333" style="font-family: &quot;Lucida Granda&quot;; font-style: normal; font-weight: normal; font-size: 11px;" transform="translate(9.4820556640625,4.050000000000001)">GCA_001307275.1_CP</text><rect id=".sangerchart-legend .sangerchart-legend-item-0 .sangerchart-legend-box .sangerchart-group-2" height="18.155990982055663" width="18.149726486206053" transform="translate(-9.074863243103026,-9.077995491027831)" class="can_select" data-type="shape" data-typeButton="" fill="rgb(128,128,128)" opacity="0.25" visibility="hidden"></rect></g><g class="sangerchart-group-3" transform="translate(0,63)"><path d="M6.4820448144285745,0A6.4820448144285745,6.4820448144285745,0,1,1,-6.4820448144285745,0A6.4820448144285745,6.4820448144285745,0,1,1,6.4820448144285745,0" transform="translate(0,0)" fill="rgb(138,43,226)" opacity="0.3" stroke="none" stroke-width="1" stroke-dasharray="5, 0"></path><text class="legend-text-3" text-anchor="start" fill="#333" style="font-family: &quot;Lucida Granda&quot;; font-style: normal; font-weight: normal; font-size: 11px;" transform="translate(9.4820556640625,4.050000000000001)">GCA_001440325.1_SP</text><rect id=".sangerchart-legend .sangerchart-legend-item-0 .sangerchart-legend-box .sangerchart-group-3" height="18.155990982055663" width="18.149726486206053" transform="translate(-9.074863243103026,-9.077995491027831)" class="can_select" data-type="shape" data-typeButton="" fill="rgb(128,128,128)" opacity="0.25" visibility="hidden"></rect></g><g class="sangerchart-group-4" transform="translate(0,84)"><path d="M6.4820448144285745,0A6.4820448144285745,6.4820448144285745,0,1,1,-6.4820448144285745,0A6.4820448144285745,6.4820448144285745,0,1,1,6.4820448144285745,0" transform="translate(0,0)" fill="rgb(0,245,255)" opacity="0.3" stroke="none" stroke-width="1" stroke-dasharray="5, 0"></path><text class="legend-text-4" text-anchor="start" fill="#333" style="font-family: &quot;Lucida Granda&quot;; font-style: normal; font-weight: normal; font-size: 11px;" transform="translate(9.4820556640625,4.050000000000001)">GCA_002943685.1_SP</text><rect id=".sangerchart-legend .sangerchart-legend-item-0 .sangerchart-legend-box .sangerchart-group-4" height="18.155990982055663" width="18.149726486206053" transform="translate(-9.074863243103026,-9.077995491027831)" class="can_select" data-type="shape" data-typeButton="" fill="rgb(128,128,128)" opacity="0.25" visibility="hidden"></rect></g><g class="sangerchart-group-5" transform="translate(0,105)"><path d="M6.4820448144285745,0A6.4820448144285745,6.4820448144285745,0,1,1,-6.4820448144285745,0A6.4820448144285745,6.4820448144285745,0,1,1,6.4820448144285745,0" transform="translate(0,0)" fill="rgb(69,139,0)" opacity="0.3" stroke="none" stroke-width="1" stroke-dasharray="5, 0"></path><text class="legend-text-5" text-anchor="start" fill="#333" style="font-family: &quot;Lucida Granda&quot;; font-style: normal; font-weight: normal; font-size: 11px;" transform="translate(9.4820556640625,4.050000000000001)">GCA_003612935.1_CP</text><rect id=".sangerchart-legend .sangerchart-legend-item-0 .sangerchart-legend-box .sangerchart-group-5" height="18.155990982055663" width="18.149726486206053" transform="translate(-9.074863243103026,-9.077995491027831)" class="can_select" data-type="shape" data-typeButton="" fill="rgb(128,128,128)" opacity="0.25" visibility="hidden"></rect></g><g class="sangerchart-group-6" transform="translate(0,126)"><path d="M6.4820448144285745,0A6.4820448144285745,6.4820448144285745,0,1,1,-6.4820448144285745,0A6.4820448144285745,6.4820448144285745,0,1,1,6.4820448144285745,0" transform="translate(0,0)" fill="rgb(255,255,0)" opacity="0.3" stroke="none" stroke-width="1" stroke-dasharray="5, 0"></path><text class="legend-text-6" text-anchor="start" fill="#333" style="font-family: &quot;Lucida Granda&quot;; font-style: normal; font-weight: normal; font-size: 11px;" transform="translate(9.4820556640625,4.050000000000001)">GCA_003732425.1_SP</text><rect id=".sangerchart-legend .sangerchart-legend-item-0 .sangerchart-legend-box .sangerchart-group-6" height="18.155990982055663" width="18.149726486206053" transform="translate(-9.074863243103026,-9.077995491027831)" class="can_select" data-type="shape" data-typeButton="" fill="rgb(128,128,128)" opacity="0.25" visibility="hidden"></rect></g><g class="sangerchart-group-7" transform="translate(0,147)"><path d="M6.4820448144285745,0A6.4820448144285745,6.4820448144285745,0,1,1,-6.4820448144285745,0A6.4820448144285745,6.4820448144285745,0,1,1,6.4820448144285745,0" transform="translate(0,0)" fill="rgb(255,69,0)" opacity="0.3" stroke="none" stroke-width="1" stroke-dasharray="5, 0"></path><text class="legend-text-7" text-anchor="start" fill="#333" style="font-family: &quot;Lucida Granda&quot;; font-style: normal; font-weight: normal; font-size: 11px;" transform="translate(9.4820556640625,4.050000000000001)">GCA_900475215.1_CP</text><rect id=".sangerchart-legend .sangerchart-legend-item-0 .sangerchart-legend-box .sangerchart-group-7" height="18.155990982055663" width="18.149726486206053" transform="translate(-9.074863243103026,-9.077995491027831)" class="can_select" data-type="shape" data-typeButton="" fill="rgb(128,128,128)" opacity="0.25" visibility="hidden"></rect></g><g class="sangerchart-group-8" transform="translate(0,168)"><path d="M6.4820448144285745,0A6.4820448144285745,6.4820448144285745,0,1,1,-6.4820448144285745,0A6.4820448144285745,6.4820448144285745,0,1,1,6.4820448144285745,0" transform="translate(0,0)" fill="rgb(0,255,127)" opacity="0.3" stroke="none" stroke-width="1" stroke-dasharray="5, 0"></path><text class="legend-text-8" text-anchor="start" fill="#333" style="font-family: &quot;Lucida Granda&quot;; font-style: normal; font-weight: normal; font-size: 11px;" transform="translate(9.4820556640625,4.050000000000001)">GCA_900636635.1_CP</text><rect id=".sangerchart-legend .sangerchart-legend-item-0 .sangerchart-legend-box .sangerchart-group-8" height="18.155990982055663" width="18.149726486206053" transform="translate(-9.074863243103026,-9.077995491027831)" class="can_select" data-type="shape" data-typeButton="" fill="rgb(128,128,128)" opacity="0.25" visibility="hidden"></rect></g><g class="sangerchart-group-9" transform="translate(0,189)"><path d="M6.4820448144285745,0A6.4820448144285745,6.4820448144285745,0,1,1,-6.4820448144285745,0A6.4820448144285745,6.4820448144285745,0,1,1,6.4820448144285745,0" transform="translate(0,0)" fill="rgb(255,20,147)" opacity="0.3" stroke="none" stroke-width="1" stroke-dasharray="5, 0"></path><text class="legend-text-9" text-anchor="start" fill="#333" style="font-family: &quot;Lucida Granda&quot;; font-style: normal; font-weight: normal; font-size: 11px;" transform="translate(9.4820556640625,4.050000000000001)">GCA_902498115.1_SP</text><rect id=".sangerchart-legend .sangerchart-legend-item-0 .sangerchart-legend-box .sangerchart-group-9" height="18.155990982055663" width="18.149726486206053" transform="translate(-9.074863243103026,-9.077995491027831)" class="can_select" data-type="shape" data-typeButton="" fill="rgb(128,128,128)" opacity="0.25" visibility="hidden"></rect></g><g class="sangerchart-group-10" transform="translate(0,210)"><path d="M6.4820448144285745,0A6.4820448144285745,6.4820448144285745,0,1,1,-6.4820448144285745,0A6.4820448144285745,6.4820448144285745,0,1,1,6.4820448144285745,0" transform="translate(0,0)" fill="rgb(139,71,137)" opacity="0.3" stroke="none" stroke-width="1" stroke-dasharray="5, 0"></path><text class="legend-text-10" text-anchor="start" fill="#333" style="font-family: &quot;Lucida Granda&quot;; font-style: normal; font-weight: normal; font-size: 11px;" transform="translate(9.4820556640625,4.050000000000001)">GCA_902498125.1_SP</text><rect id=".sangerchart-legend .sangerchart-legend-item-0 .sangerchart-legend-box .sangerchart-group-10" height="18.155990982055663" width="18.149726486206053" transform="translate(-9.074863243103026,-9.077995491027831)" class="can_select" data-type="shape" data-typeButton="" fill="rgb(128,128,128)" opacity="0.25" visibility="hidden"></rect></g><g class="sangerchart-group-11" transform="translate(0,231)"><path d="M6.4820448144285745,0A6.4820448144285745,6.4820448144285745,0,1,1,-6.4820448144285745,0A6.4820448144285745,6.4820448144285745,0,1,1,6.4820448144285745,0" transform="translate(0,0)" fill="rgb(255,106,106)" opacity="0.3" stroke="none" stroke-width="1" stroke-dasharray="5, 0"></path><text class="legend-text-11" text-anchor="start" fill="#333" style="font-family: &quot;Lucida Granda&quot;; font-style: normal; font-weight: normal; font-size: 11px;" transform="translate(9.4820556640625,4.050000000000001)">GCA_902498195.1_SP</text><rect id=".sangerchart-legend .sangerchart-legend-item-0 .sangerchart-legend-box .sangerchart-group-11" height="18.155990982055663" width="18.149726486206053" transform="translate(-9.074863243103026,-9.077995491027831)" class="can_select" data-type="shape" data-typeButton="" fill="rgb(128,128,128)" opacity="0.25" visibility="hidden"></rect></g><g id=".sangerchart-legend .sangerchart-legend-item-0 .sangerchart-legend-box text" class="can_select" data-type="text" data-typeButton="" fill="rgb(128,128,128)" opacity="0.25" visibility="hidden"><rect height="15" width="126.12187500000002" transform="translate(9.4820556640625,-7.5)"></rect><rect height="15" width="126.12187500000002" transform="translate(9.4820556640625,13.5)"></rect><rect height="15" width="126.12187500000002" transform="translate(9.4820556640625,34.5)"></rect><rect height="15" width="125.02187500000001" transform="translate(9.4820556640625,55.5)"></rect><rect height="15" width="125.02187500000001" transform="translate(9.4820556640625,76.5)"></rect><rect height="15" width="126.12187500000002" transform="translate(9.4820556640625,97.5)"></rect><rect height="15" width="125.02187500000001" transform="translate(9.4820556640625,118.5)"></rect><rect height="15" width="126.12187500000002" transform="translate(9.4820556640625,139.5)"></rect><rect height="15" width="126.12187500000002" transform="translate(9.4820556640625,160.5)"></rect><rect height="15" width="125.02187500000001" transform="translate(9.4820556640625,181.5)"></rect><rect height="15" width="125.02187500000001" transform="translate(9.4820556640625,202.5)"></rect><rect height="15" width="125.02187500000001" transform="translate(9.4820556640625,223.5)"></rect></g></g><rect id=".sangerchart-legend .sangerchart-legend-item-0 .sangerchart-legend-title" height="0px" width="20px" transform="translate(-10,0)" class="can_select" data-type="text" data-typeButton="" fill="rgb(128,128,128)" opacity="0.25" visibility="hidden"></rect></g></g><g class="sangerchart-title-g"><title>双击可修改,长按可拖拽！</title><text class="sangerchart-title" fill="#333" style="font-size: 18px; font-weight: normal; font-family: Arial; font-style: normal; text-anchor: middle;" transform="translate(500,20)">Venn</text><rect id=".sangerchart-title" height="20px" width="62.0625px" transform="translate(468.46875,4)" class="can_select" data-type="text" data-typeButton="" fill="rgb(128,128,128)" opacity="0.25" visibility="hidden"></rect></g><g class="sangerchart-subtitle-g"><title>双击可修改!</title><text class="sangerchart-subtitle" font-size="11px" fill="#333" style="font-weight: normal; font-family: Arial; font-style: normal; text-anchor: middle;" transform="translate(500,30)"></text><rect id=".sangerchart-subtitle" height="0px" width="20px" transform="translate(-10,0)" class="can_select" data-type="text" data-typeButton="" fill="rgb(128,128,128)" opacity="0.25" visibility="hidden"></rect></g><g class="sangerchart-frame" visibility="hidden"><g class="frame0" transform="translate(42,65)"><path d="M0,0V0.5H774V0" stroke="currentColor" fill="none"></path><path d="M-0,590H0.5V0.5H-0" stroke="currentColor" transform="translate(774,0)" fill="none"></path><path d="M0,0V0.5H774V0" stroke="currentColor" transform="translate(0,590)" fill="none"></path><path d="M-0,590H0.5V0.5H-0" stroke="currentColor" fill="none"></path></g></g></svg>