<svg width="1200" height="512" viewBox="0 0 1200 512" version="1.1" xmlns="http://www.w3.org/2000/svg"><g class="sangerchart-grid-group"></g><g class="sangerchart-series-group"><g class="sangerchart-group-0" transform="translate(191,60)"><g class="arrow_floatelement_ytext" transform="translate(-176,0)"><g class="arrow_floatelement_ytext0" transform="translate(0,14.9)"><text x="0" y="0" fill="rgb(0, 0, 0)" style="font-family: Arial; font-size: 12px; font-weight: normal;">GCA_002943855.1_CS-GI03</text></g><g class="arrow_floatelement_ytext1" transform="translate(0,128.9)"><text x="0" y="0" fill="rgb(0, 0, 0)" style="font-family: Arial; font-size: 12px; font-weight: normal;">GCA_002950155.1_CS-GI12</text></g><g class="arrow_floatelement_ytext2" transform="translate(0,242.9)"><text x="0" y="0" fill="rgb(0, 0, 0)" style="font-family: Arial; font-size: 12px; font-weight: normal;">GCA_002950055.1_CS-GI60</text></g><g class="arrow_floatelement_ytext3" transform="translate(0,299.9)"><text x="0" y="0" fill="rgb(0, 0, 0)" style="font-family: Arial; font-size: 12px; font-weight: normal;">GCA_009662135.1_CS-GI08</text></g><g id=".arrow_floatelement_ytext text" class="can_select" data-type="text" data-typeButton="" fill="rgb(128,128,128)" opacity="0.25" visibility="hidden"><rect height="16.5px" width="166.4375px" transform="translate(0,-2.5999999999999996)"></rect><rect height="16.5px" width="166.4375px" transform="translate(0,111.4)"></rect><rect height="16.5px" width="166.4375px" transform="translate(0,225.4)"></rect><rect height="16.5px" width="166.4375px" transform="translate(0,282.4)"></rect></g></g><g class="arrows" transform="translate(0,0)"><path d="M0,10L0,-10L70.53942222277534,-10L84.6815578465063,0L70.53942222277534,10Z" transform="translate(0, 11.399999618530273)" fill="rgb(135, 200, 71)" opacity=" 0.8" stroke="none" stroke-width="1" stroke-dasharray="0,0"></path><path d="M102.16122565864833,10L102.16122565864833,-10L119.33896403262642,-10L133.48109965635737,0L119.33896403262642,10Z" transform="translate(0, 11.399999618530273)" fill="rgb(234, 106, 106)" opacity=" 0.8" stroke="none" stroke-width="1" stroke-dasharray="0,0"></path><path d="M147.42382588774342,10L147.42382588774342,-10L150.24312714776633,-10L161.52033218785795,0L150.24312714776633,10Z" transform="translate(0, 11.399999618530273)" fill="rgb(234, 106, 106)" opacity=" 0.8" stroke="none" stroke-width="1" stroke-dasharray="0,0"></path><path d="M173.92525773195877,10L173.92525773195877,-10L176.56002290950744,-10L187.09908361970218,0L176.56002290950744,10Z" transform="translate(0, 11.399999618530273)" fill="rgb(103, 224, 227)" opacity=" 0.8" stroke="none" stroke-width="1" stroke-dasharray="0,0"></path><path d="M196.63344788087056,10L196.63344788087056,-10L350.67544742323355,-10L364.8175830469645,0L350.67544742323355,10Z" transform="translate(0, 11.399999618530273)" fill="rgb(151, 201, 121)" opacity=" 0.8" stroke="none" stroke-width="1" stroke-dasharray="0,0"></path><path d="M464.26202749140896,10L464.26202749140896,-10L466.8306593361774,-10L480.97279495990836,0L466.8306593361774,10Z" transform="translate(0, 11.399999618530273)" fill="rgb(234, 106, 106)" opacity=" 0.8" stroke="none" stroke-width="1" stroke-dasharray="0,0"></path><path d="M516.4959908361969,10L516.4959908361969,-10L518.5463917525773,-10L526.7479954180985,0L518.5463917525773,10Z" transform="translate(0, 11.399999618530273)" fill="rgb(234, 106, 106)" opacity=" 0.8" stroke="none" stroke-width="1" stroke-dasharray="0,0"></path><path d="M529.1572164948453,10L529.1572164948453,-10L531.4536655211913,-10L540.639461626575,0L531.4536655211913,10Z" transform="translate(0, 11.399999618530273)" fill="rgb(234, 106, 106)" opacity=" 0.8" stroke="none" stroke-width="1" stroke-dasharray="0,0"></path><path d="M393.47193585337914,10L393.47193585337914,-10L440.94434776687615,-10L455.0864833906071,0L440.94434776687615,10Z" transform="translate(0, 11.399999618530273)" fill="rgb(255, 201, 0)" opacity=" 0.8" stroke="none" stroke-width="1" stroke-dasharray="0,0"></path><path d="M480.81901489117985,10L480.81901489117985,-10L495.69005223423005,-10L509.832187857961,0L495.69005223423005,10Z" transform="translate(0, 68.4000015258789)" fill="rgb(255, 201, 0)" opacity=" 0.8" stroke="none" stroke-width="1" stroke-dasharray="0,0"></path><path d="M0,10L0,-10L70.53942222277534,-10L84.6815578465063,0L70.53942222277534,10Z" transform="translate(0, 125.4000015258789)" fill="rgb(135, 200, 71)" opacity=" 0.8" stroke="none" stroke-width="1" stroke-dasharray="0,0"></path><path d="M102.16122565864833,10L102.16122565864833,-10L133.48673035565048,-10L147.62886597938143,0L133.48673035565048,10Z" transform="translate(0, 125.4000015258789)" fill="rgb(234, 106, 106)" opacity=" 0.8" stroke="none" stroke-width="1" stroke-dasharray="0,0"></path><path d="M147.62886597938143,10L147.62886597938143,-10L150.19749782414993,-10L164.33963344788089,0L150.19749782414993,10Z" transform="translate(0, 125.4000015258789)" fill="rgb(234, 106, 106)" opacity=" 0.8" stroke="none" stroke-width="1" stroke-dasharray="0,0"></path><path d="M196.8897479954181,10L196.8897479954181,-10L335.09240045874327,-10L349.2345360824742,0L335.09240045874327,10Z" transform="translate(0, 125.4000015258789)" fill="rgb(151, 201, 121)" opacity=" 0.8" stroke="none" stroke-width="1" stroke-dasharray="0,0"></path><path d="M464.31328751431846,10L464.31328751431846,-10L466.54822451317295,-10L475.48797250859104,0L466.54822451317295,10Z" transform="translate(0, 125.4000015258789)" fill="rgb(234, 106, 106)" opacity=" 0.8" stroke="none" stroke-width="1" stroke-dasharray="0,0"></path><path d="M508.4481672394043,10L508.4481672394043,-10L510.9291523482245,-10L520.8530927835052,0L510.9291523482245,10Z" transform="translate(0, 125.4000015258789)" fill="rgb(234, 106, 106)" opacity=" 0.8" stroke="none" stroke-width="1" stroke-dasharray="0,0"></path><path d="M528.3883161512027,10L528.3883161512027,-10L530.8385452462771,-10L540.639461626575,0L530.8385452462771,10Z" transform="translate(0, 125.4000015258789)" fill="rgb(234, 106, 106)" opacity=" 0.8" stroke="none" stroke-width="1" stroke-dasharray="0,0"></path><path d="M639.0074455899198,10L639.0074455899198,-10L659.1070052697398,-10L673.2491408934708,0L659.1070052697398,10Z" transform="translate(0, 125.4000015258789)" fill="rgb(234, 106, 106)" opacity=" 0.8" stroke="none" stroke-width="1" stroke-dasharray="0,0"></path><path d="M684.2187857961053,10L684.2187857961053,-10L686.7874176408739,-10L700.9295532646048,0L686.7874176408739,10Z" transform="translate(0, 125.4000015258789)" fill="rgb(234, 106, 106)" opacity=" 0.8" stroke="none" stroke-width="1" stroke-dasharray="0,0"></path><path d="M707.9521764032073,10L707.9521764032073,-10L713.1350694163607,-10L727.2772050400916,0L713.1350694163607,10Z" transform="translate(0, 125.4000015258789)" fill="rgb(234, 106, 106)" opacity=" 0.8" stroke="none" stroke-width="1" stroke-dasharray="0,0"></path><path d="M762.6466208476518,10L762.6466208476518,-10L764.9738258877434,-10L774.28264604811,0L764.9738258877434,10Z" transform="translate(0, 125.4000015258789)" fill="rgb(234, 106, 106)" opacity=" 0.8" stroke="none" stroke-width="1" stroke-dasharray="0,0"></path><path d="M857.8364833906071,10L857.8364833906071,-10L859.3947880870561,-10L865.6280068728522,0L859.3947880870561,10Z" transform="translate(0, 125.4000015258789)" fill="rgb(234, 106, 106)" opacity=" 0.8" stroke="none" stroke-width="1" stroke-dasharray="0,0"></path><path d="M545.4579037800688,10L545.4579037800688,-10L548.1803156935657,-10L562.3224513172967,0L548.1803156935657,10Z" transform="translate(0, 125.4000015258789)" fill="rgb(255, 201, 0)" opacity=" 0.8" stroke="none" stroke-width="1" stroke-dasharray="0,0"></path><path d="M581.852520045819,10L581.852520045819,-10L582.1144508596597,-10L596.2565864833906,0L582.1144508596597,10Z" transform="translate(0, 125.4000015258789)" fill="rgb(255, 201, 0)" opacity=" 0.8" stroke="none" stroke-width="1" stroke-dasharray="0,0"></path><path d="M618.9647766323023,10L618.9647766323023,-10L620.1540091638029,-10L624.9109392898052,0L620.1540091638029,10Z" transform="translate(0, 125.4000015258789)" fill="rgb(255, 201, 0)" opacity=" 0.8" stroke="none" stroke-width="1" stroke-dasharray="0,0"></path><path d="M630.2932416953035,10L630.2932416953035,-10L632.0053264604811,-10L638.8536655211913,0L632.0053264604811,10Z" transform="translate(0, 125.4000015258789)" fill="rgb(255, 201, 0)" opacity=" 0.8" stroke="none" stroke-width="1" stroke-dasharray="0,0"></path><path d="M741.0148911798395,10L741.0148911798395,-10L746.197784192993,-10L760.339919816724,0L746.197784192993,10Z" transform="translate(0, 125.4000015258789)" fill="rgb(255, 201, 0)" opacity=" 0.8" stroke="none" stroke-width="1" stroke-dasharray="0,0"></path><path d="M866.7044673539519,10L866.7044673539519,-10L867.8629438717068,-10L872.4968499427262,0L867.8629438717068,10Z" transform="translate(0, 125.4000015258789)" fill="rgb(255, 201, 0)" opacity=" 0.8" stroke="none" stroke-width="1" stroke-dasharray="0,0"></path><path d="M874.2909507445589,10L874.2909507445589,-10L880.857864376269,-10L895,0L880.857864376269,10Z" transform="translate(0, 125.4000015258789)" fill="rgb(255, 201, 0)" opacity=" 0.8" stroke="none" stroke-width="1" stroke-dasharray="0,0"></path><path d="M84.52777777777777,10L84.52777777777777,-10L86.0245704467354,-10L92.01174112256587,0L86.0245704467354,10Z" transform="translate(0, 182.39999389648438)" fill="rgb(255, 201, 0)" opacity=" 0.8" stroke="none" stroke-width="1" stroke-dasharray="0,0"></path><path d="M480.97279495990836,10L480.97279495990836,-10L495.69005223423005,-10L509.832187857961,0L495.69005223423005,10Z" transform="translate(0, 182.39999389648438)" fill="rgb(255, 201, 0)" opacity=" 0.8" stroke="none" stroke-width="1" stroke-dasharray="0,0"></path><path d="M596.2565864833906,10L596.2565864833906,-10L600.3630190154444,-10L614.5051546391753,0L600.3630190154444,10Z" transform="translate(0, 182.39999389648438)" fill="rgb(255, 201, 0)" opacity=" 0.8" stroke="none" stroke-width="1" stroke-dasharray="0,0"></path><path d="M676.5810423825887,10L676.5810423825887,-10L678.1393470790377,-10L684.3725658648339,0L678.1393470790377,10Z" transform="translate(0, 182.39999389648438)" fill="rgb(255, 201, 0)" opacity=" 0.8" stroke="none" stroke-width="1" stroke-dasharray="0,0"></path><path d="M21.68298969072165,10L21.68298969072165,-10L24.133218785796103,-10L33.934135166093924,0L24.133218785796103,10Z" transform="translate(0, 239.39999389648438)" fill="rgb(234, 106, 106)" opacity=" 0.8" stroke="none" stroke-width="1" stroke-dasharray="0,0"></path><path d="M41.46935853379153,10L41.46935853379153,-10L43.61202749140894,-10L52.18270332187858,0L43.61202749140894,10Z" transform="translate(0, 239.39999389648438)" fill="rgb(234, 106, 106)" opacity=" 0.8" stroke="none" stroke-width="1" stroke-dasharray="0,0"></path><path d="M63.049828178694156,10L63.049828178694156,-10L67.15626071074786,-10L81.29839633447881,0L67.15626071074786,10Z" transform="translate(0, 239.39999389648438)" fill="rgb(234, 106, 106)" opacity=" 0.8" stroke="none" stroke-width="1" stroke-dasharray="0,0"></path><path d="M81.14461626575029,10L81.14461626575029,-10L83.9639175257732,-10L95.24112256586483,0L83.9639175257732,10Z" transform="translate(0, 239.39999389648438)" fill="rgb(234, 106, 106)" opacity=" 0.8" stroke="none" stroke-width="1" stroke-dasharray="0,0"></path><path d="M0,10L0,-10L2.722411913496998,-10L16.86454753722795,0L2.722411913496998,10Z" transform="translate(0, 239.39999389648438)" fill="rgb(255, 201, 0)" opacity=" 0.8" stroke="none" stroke-width="1" stroke-dasharray="0,0"></path><path d="M52.49026345933562,10L52.49026345933562,-10L54.4176403207331,-10L62.12714776632303,0L54.4176403207331,10Z" transform="translate(0, 239.39999389648438)" fill="rgb(255, 201, 0)" opacity=" 0.8" stroke="none" stroke-width="1" stroke-dasharray="0,0"></path><path d="M362.97222222222223,10L362.97222222222223,-10L365.1456471935853,-10L373.8393470790378,0L365.1456471935853,10Z" transform="translate(0, 239.39999389648438)" fill="rgb(255, 201, 0)" opacity=" 0.8" stroke="none" stroke-width="1" stroke-dasharray="0,0"></path><path d="M386.6030927835052,10L386.6030927835052,-10L391.939765865387,-10L406.08190148911797,0L391.939765865387,10Z" transform="translate(0, 239.39999389648438)" fill="rgb(255, 201, 0)" opacity=" 0.8" stroke="none" stroke-width="1" stroke-dasharray="0,0"></path><path d="M406.03064146620846,10L406.03064146620846,-10L407.5581901489118,-10L413.6683848797251,0L407.5581901489118,10Z" transform="translate(0, 239.39999389648438)" fill="rgb(255, 201, 0)" opacity=" 0.8" stroke="none" stroke-width="1" stroke-dasharray="0,0"></path><path d="M84.6815578465063,10L84.6815578465063,-10L14.142135623730951,-10L0,0L14.142135623730951,10Z" transform="translate(0, 296.3999938964844)" fill="rgb(135, 200, 71)" opacity=" 0.8" stroke="none" stroke-width="1" stroke-dasharray="0,0"></path><path d="M164.33963344788089,10L164.33963344788089,-10L161.87352164893142,-10L147.73138602520046,0L161.87352164893142,10Z" transform="translate(0, 296.3999938964844)" fill="rgb(234, 106, 106)" opacity=" 0.8" stroke="none" stroke-width="1" stroke-dasharray="0,0"></path><path d="M187.35538373424973,10L187.35538373424973,-10L179.81452966725902,-10L165.67239404352807,0L179.81452966725902,10Z" transform="translate(0, 296.3999938964844)" fill="rgb(103, 224, 227)" opacity=" 0.8" stroke="none" stroke-width="1" stroke-dasharray="0,0"></path><path d="M366.4579037800687,10L366.4579037800687,-10L211.03188361914906,-10L196.8897479954181,0L211.03188361914906,10Z" transform="translate(0, 296.3999938964844)" fill="rgb(151, 201, 121)" opacity=" 0.8" stroke="none" stroke-width="1" stroke-dasharray="0,0"></path><path d="M464.36454753722796,10L464.36454753722796,-10L485.43804765232863,-10L499.5801832760596,0L485.43804765232863,10Z" transform="translate(0, 296.3999938964844)" fill="rgb(234, 106, 106)" opacity=" 0.8" stroke="none" stroke-width="1" stroke-dasharray="0,0"></path><path d="M499.6827033218786,10L499.6827033218786,-10L504.30173608302744,-10L518.4438717067584,0L504.30173608302744,10Z" transform="translate(0, 296.3999938964844)" fill="rgb(234, 106, 106)" opacity=" 0.8" stroke="none" stroke-width="1" stroke-dasharray="0,0"></path><path d="M528.4395761741123,10L528.4395761741123,-10L530.8898052691867,-10L540.6907216494845,0L530.8898052691867,10Z" transform="translate(0, 296.3999938964844)" fill="rgb(234, 106, 106)" opacity=" 0.8" stroke="none" stroke-width="1" stroke-dasharray="0,0"></path><path d="M393.57445589919814,10L393.57445589919814,-10L441.04686781269515,-10L455.1890034364261,0L441.04686781269515,10Z" transform="translate(0, 296.3999938964844)" fill="rgb(255, 201, 0)" opacity=" 0.8" stroke="none" stroke-width="1" stroke-dasharray="0,0"></path><path d="M147.73138602520046,10L147.73138602520046,-10L116.30336128237929,-10L102.16122565864833,0L116.30336128237929,10Z" transform="translate(0, 353.3999938964844)" fill="rgb(255, 201, 0)" opacity=" 0.8" stroke="none" stroke-width="1" stroke-dasharray="0,0"></path></g><g class="arrow_floatelement_text"><g class="up_text0" transform="translate(0,-3)"><text x="42.34077892325315" y="0" text-anchor="middle" fill="rgb(51, 51, 51)" style="font-family: Arial; font-size: 12px; font-weight: normal;">ushA</text></g><g class="up_text1" transform="translate(0,-3)"><text x="280.72551546391753" y="0" text-anchor="middle" fill="rgb(51, 51, 51)" style="font-family: Arial; font-size: 12px; font-weight: normal;">icsA</text></g><g class="up_text2" transform="translate(0,-3)"><text x="424.2792096219931" y="0" text-anchor="middle" fill="rgb(51, 51, 51)" style="font-family: Arial; font-size: 12px; font-weight: normal;">espG</text></g><g class="up_text3" transform="translate(0,111)"><text x="42.34077892325315" y="0" text-anchor="middle" fill="rgb(51, 51, 51)" style="font-family: Arial; font-size: 12px; font-weight: normal;">ushA</text></g><g class="up_text4" transform="translate(0,111)"><text x="273.06214203894615" y="0" text-anchor="middle" fill="rgb(51, 51, 51)" style="font-family: Arial; font-size: 12px; font-weight: normal;">icsA</text></g><g class="up_text5" transform="translate(0,282)"><text x="42.34077892325315" y="0" text-anchor="middle" fill="rgb(51, 51, 51)" style="font-family: Arial; font-size: 12px; font-weight: normal;">ushA</text></g><g class="up_text6" transform="translate(0,282)"><text x="281.6738258877434" y="0" text-anchor="middle" fill="rgb(51, 51, 51)" style="font-family: Arial; font-size: 12px; font-weight: normal;">icsA</text></g><g class="up_text7" transform="translate(0,282)"><text x="424.3817296678121" y="0" text-anchor="middle" fill="rgb(51, 51, 51)" style="font-family: Arial; font-size: 12px; font-weight: normal;">espG</text></g></g><g id=".arrow_floatelement_text text" class="can_select" data-type="text" data-typeButton="" fill="rgb(128,128,128)" opacity="0.25" visibility="hidden"><rect height="16.5px" width="38.359375px" transform="translate(23.161091423253147,-17)"></rect><rect height="16.5px" width="33.671875px" transform="translate(263.88957796391753,-17)"></rect><rect height="16.5px" width="38.6875px" transform="translate(404.9354596219931,-17)"></rect><rect height="16.5px" width="38.359375px" transform="translate(23.161091423253147,97)"></rect><rect height="16.5px" width="33.671875px" transform="translate(256.22620453894615,97)"></rect><rect height="16.5px" width="38.359375px" transform="translate(23.161091423253147,268)"></rect><rect height="16.5px" width="33.671875px" transform="translate(264.8378883877434,268)"></rect><rect height="16.5px" width="38.6875px" transform="translate(405.0379796678121,268)"></rect></g></g></g><g class="sangerchart-legend" transform="translate(0,0)"><g class="sangerchart-legend-item-0" id="sangerchart-legend" transform="translate(1116,50)"><title>长按拖动图例!</title><text class="sangerchart-legend-title" text-anchor="start" transform="translate(-5,0)" style="font-size: 12px; font-weight: normal; fill: rgb(51, 51, 51); font-style: normal; font-family: Arial;"></text><g class="sangerchart-legend-box" transform="translate(0,15)" data-type="sangerchart-group-0"><g class="sangerchart-group-0" transform="translate(0,0)"><path d="M6.4820448144285745,0A6.4820448144285745,6.4820448144285745,0,1,1,-6.4820448144285745,0A6.4820448144285745,6.4820448144285745,0,1,1,6.4820448144285745,0" transform="translate(0,0)" fill="rgb(135,200,71)" opacity="0.8" stroke="none" stroke-width="1" stroke-dasharray="5, 0"></path><text class="legend-text-0" text-anchor="start" fill="#333" style="font-family: &quot;Lucida Granda&quot;; font-style: normal; font-weight: normal; font-size: 11px;" transform="translate(9.4820556640625,4.050000000000001)">F</text><rect id=".sangerchart-legend .sangerchart-legend-item-0 .sangerchart-legend-box .sangerchart-group-0" height="18.155990982055663" width="18.149726486206053" transform="translate(-9.074863243103026,-9.077995491027831)" class="can_select" data-type="shape" data-typeButton="" fill="rgb(128,128,128)" opacity="0.25" visibility="hidden"></rect></g><g class="sangerchart-group-1" transform="translate(0,21)"><path d="M6.4820448144285745,0A6.4820448144285745,6.4820448144285745,0,1,1,-6.4820448144285745,0A6.4820448144285745,6.4820448144285745,0,1,1,6.4820448144285745,0" transform="translate(0,0)" fill="rgb(234,106,106)" opacity="0.8" stroke="none" stroke-width="1" stroke-dasharray="5, 0"></path><text class="legend-text-1" text-anchor="start" fill="#333" style="font-family: &quot;Lucida Granda&quot;; font-style: normal; font-weight: normal; font-size: 11px;" transform="translate(9.4820556640625,4.050000000000001)">L</text><rect id=".sangerchart-legend .sangerchart-legend-item-0 .sangerchart-legend-box .sangerchart-group-1" height="18.155990982055663" width="18.149726486206053" transform="translate(-9.074863243103026,-9.077995491027831)" class="can_select" data-type="shape" data-typeButton="" fill="rgb(128,128,128)" opacity="0.25" visibility="hidden"></rect></g><g class="sangerchart-group-2" transform="translate(0,42)"><path d="M6.4820448144285745,0A6.4820448144285745,6.4820448144285745,0,1,1,-6.4820448144285745,0A6.4820448144285745,6.4820448144285745,0,1,1,6.4820448144285745,0" transform="translate(0,0)" fill="rgb(103,224,227)" opacity="0.8" stroke="none" stroke-width="1" stroke-dasharray="5, 0"></path><text class="legend-text-2" text-anchor="start" fill="#333" style="font-family: &quot;Lucida Granda&quot;; font-style: normal; font-weight: normal; font-size: 11px;" transform="translate(9.4820556640625,4.050000000000001)">M</text><rect id=".sangerchart-legend .sangerchart-legend-item-0 .sangerchart-legend-box .sangerchart-group-2" height="18.155990982055663" width="18.149726486206053" transform="translate(-9.074863243103026,-9.077995491027831)" class="can_select" data-type="shape" data-typeButton="" fill="rgb(128,128,128)" opacity="0.25" visibility="hidden"></rect></g><g class="sangerchart-group-3" transform="translate(0,63)"><path d="M6.4820448144285745,0A6.4820448144285745,6.4820448144285745,0,1,1,-6.4820448144285745,0A6.4820448144285745,6.4820448144285745,0,1,1,6.4820448144285745,0" transform="translate(0,0)" fill="rgb(151,201,121)" opacity="0.8" stroke="none" stroke-width="1" stroke-dasharray="5, 0"></path><text class="legend-text-3" text-anchor="start" fill="#333" style="font-family: &quot;Lucida Granda&quot;; font-style: normal; font-weight: normal; font-size: 11px;" transform="translate(9.4820556640625,4.050000000000001)">M;U</text><rect id=".sangerchart-legend .sangerchart-legend-item-0 .sangerchart-legend-box .sangerchart-group-3" height="18.155990982055663" width="18.149726486206053" transform="translate(-9.074863243103026,-9.077995491027831)" class="can_select" data-type="shape" data-typeButton="" fill="rgb(128,128,128)" opacity="0.25" visibility="hidden"></rect></g><g class="sangerchart-group-4" transform="translate(0,84)"><path d="M6.4820448144285745,0A6.4820448144285745,6.4820448144285745,0,1,1,-6.4820448144285745,0A6.4820448144285745,6.4820448144285745,0,1,1,6.4820448144285745,0" transform="translate(0,0)" fill="rgb(255,201,0)" opacity="0.8" stroke="none" stroke-width="1" stroke-dasharray="5, 0"></path><text class="legend-text-4" text-anchor="start" fill="#333" style="font-family: &quot;Lucida Granda&quot;; font-style: normal; font-weight: normal; font-size: 11px;" transform="translate(9.4820556640625,4.050000000000001)">Unknown</text><rect id=".sangerchart-legend .sangerchart-legend-item-0 .sangerchart-legend-box .sangerchart-group-4" height="18.155990982055663" width="18.149726486206053" transform="translate(-9.074863243103026,-9.077995491027831)" class="can_select" data-type="shape" data-typeButton="" fill="rgb(128,128,128)" opacity="0.25" visibility="hidden"></rect></g><g id=".sangerchart-legend .sangerchart-legend-item-0 .sangerchart-legend-box text" class="can_select" data-type="text" data-typeButton="" fill="rgb(128,128,128)" opacity="0.25" visibility="hidden"><rect height="15" width="6.6000000000000005" transform="translate(9.4820556640625,-7.5)"></rect><rect height="15" width="6.6000000000000005" transform="translate(9.4820556640625,13.5)"></rect><rect height="15" width="11.825000000000001" transform="translate(9.4820556640625,34.5)"></rect><rect height="15" width="23.770312500000003" transform="translate(9.4820556640625,55.5)"></rect><rect height="15" width="55.48125" transform="translate(9.4820556640625,76.5)"></rect></g></g><rect id=".sangerchart-legend .sangerchart-legend-item-0 .sangerchart-legend-title" height="0px" width="20px" transform="translate(-10,0)" class="can_select" data-type="text" data-typeButton="" fill="rgb(128,128,128)" opacity="0.25" visibility="hidden"></rect></g></g><g class="sangerchart-title-g"><title>双击可修改,长按可拖拽！</title><text class="sangerchart-title" fill="#333" style="font-size: 18px; font-weight: normal; font-family: Arial; font-style: normal; text-anchor: middle;" transform="translate(600,20)">GI Map</text><rect id=".sangerchart-title" height="20px" width="79.03125px" transform="translate(560.484375,4)" class="can_select" data-type="text" data-typeButton="" fill="rgb(128,128,128)" opacity="0.25" visibility="hidden"></rect></g><g class="sangerchart-frame" visibility="hidden"><g class="frame0" transform="translate(191,60)"><path d="M0,0V0.5H1036V0" stroke="currentColor" fill="none"></path><path d="M-0,402H0.5V0.5H-0" stroke="currentColor" transform="translate(1036,0)" fill="none"></path><path d="M0,0V0.5H1036V0" stroke="currentColor" transform="translate(0,402)" fill="none"></path><path d="M-0,402H0.5V0.5H-0" stroke="currentColor" fill="none"></path></g></g></svg>